<svg width="256" height="149" viewBox="0 0 256 149" fill="none" xmlns="http://www.w3.org/2000/svg">
<path d="M0 0H256V99C256 112.261 250.732 124.979 241.355 134.355C231.979 143.732 219.261 149 206 149H50C36.7392 149 24.0215 143.732 14.6447 134.355C5.26784 124.979 0 112.261 0 99L0 0Z" fill="#E0B973"/>
<path d="M91.505 91.68C91.165 91.7 90.92 91.74 90.77 91.8C90.62 91.86 90.515 91.975 90.455 92.145C90.405 92.315 90.38 92.59 90.38 92.97V100.41C90.38 100.79 90.405 101.065 90.455 101.235C90.515 101.405 90.62 101.52 90.77 101.58C90.92 101.64 91.165 101.68 91.505 101.7V102C91.015 101.97 90.255 101.955 89.225 101.955C88.215 101.955 87.43 101.97 86.87 102V101.7C87.2 101.68 87.44 101.64 87.59 101.58C87.75 101.52 87.855 101.405 87.905 101.235C87.965 101.065 87.995 100.79 87.995 100.41V96.81H84.02V100.41C84.02 100.79 84.045 101.065 84.095 101.235C84.155 101.405 84.26 101.52 84.41 101.58C84.56 101.64 84.805 101.68 85.145 101.7V102C84.605 101.97 83.85 101.955 82.88 101.955C81.81 101.955 81.02 101.97 80.51 102V101.7C80.84 101.68 81.08 101.64 81.23 101.58C81.39 101.52 81.495 101.405 81.545 101.235C81.605 101.065 81.635 100.79 81.635 100.41V92.97C81.635 92.59 81.605 92.315 81.545 92.145C81.495 91.975 81.39 91.86 81.23 91.8C81.08 91.74 80.84 91.7 80.51 91.68V91.38C81.02 91.41 81.81 91.425 82.88 91.425C83.85 91.425 84.605 91.41 85.145 91.38V91.68C84.805 91.7 84.56 91.74 84.41 91.8C84.26 91.86 84.155 91.975 84.095 92.145C84.045 92.315 84.02 92.59 84.02 92.97V96.51H87.995V92.97C87.995 92.59 87.965 92.315 87.905 92.145C87.855 91.975 87.75 91.86 87.59 91.8C87.44 91.74 87.2 91.7 86.87 91.68V91.38C87.43 91.41 88.215 91.425 89.225 91.425C90.255 91.425 91.015 91.41 91.505 91.38V91.68ZM106.835 91.17C107.895 91.17 108.82 91.385 109.61 91.815C110.41 92.245 111.03 92.87 111.47 93.69C111.91 94.5 112.13 95.47 112.13 96.6C112.13 97.7 111.905 98.675 111.455 99.525C111.005 100.375 110.375 101.035 109.565 101.505C108.765 101.975 107.85 102.21 106.82 102.21C105.76 102.21 104.83 101.995 104.03 101.565C103.24 101.135 102.625 100.515 102.185 99.705C101.745 98.885 101.525 97.91 101.525 96.78C101.525 95.68 101.75 94.705 102.2 93.855C102.65 93.005 103.275 92.345 104.075 91.875C104.885 91.405 105.805 91.17 106.835 91.17ZM106.775 91.44C106.225 91.44 105.74 91.665 105.32 92.115C104.9 92.555 104.575 93.175 104.345 93.975C104.125 94.775 104.015 95.69 104.015 96.72C104.015 97.76 104.14 98.675 104.39 99.465C104.65 100.255 104.995 100.865 105.425 101.295C105.865 101.725 106.35 101.94 106.88 101.94C107.43 101.94 107.915 101.72 108.335 101.28C108.755 100.83 109.075 100.205 109.295 99.405C109.525 98.605 109.64 97.69 109.64 96.66C109.64 95.62 109.51 94.705 109.25 93.915C109 93.125 108.655 92.515 108.215 92.085C107.785 91.655 107.305 91.44 106.775 91.44ZM131.404 91.38C131.334 92.33 131.299 93.18 131.299 93.93C131.299 94.4 131.314 94.78 131.344 95.07H130.999C130.759 93.84 130.429 92.975 130.009 92.475C129.599 91.975 129.034 91.725 128.314 91.725H127.969V100.29C127.969 100.71 128.009 101.015 128.089 101.205C128.179 101.395 128.329 101.525 128.539 101.595C128.759 101.655 129.104 101.69 129.574 101.7V102C128.314 101.97 127.364 101.955 126.724 101.955C126.094 101.955 125.179 101.97 123.979 102V101.7C124.449 101.69 124.789 101.655 124.999 101.595C125.219 101.525 125.369 101.395 125.449 101.205C125.539 101.015 125.584 100.71 125.584 100.29V91.725H125.254C124.774 91.725 124.364 91.83 124.024 92.04C123.694 92.25 123.409 92.6 123.169 93.09C122.929 93.57 122.724 94.23 122.554 95.07H122.209C122.239 94.78 122.254 94.4 122.254 93.93C122.254 93.18 122.219 92.33 122.149 91.38C123.059 91.41 124.604 91.425 126.784 91.425C128.964 91.425 130.504 91.41 131.404 91.38ZM149.524 99.72C149.524 100.64 149.559 101.4 149.629 102C148.949 101.97 147.804 101.955 146.194 101.955C144.014 101.955 142.384 101.97 141.304 102V101.7C141.634 101.68 141.874 101.64 142.024 101.58C142.184 101.52 142.289 101.405 142.339 101.235C142.399 101.065 142.429 100.79 142.429 100.41V92.97C142.429 92.59 142.399 92.315 142.339 92.145C142.289 91.975 142.184 91.86 142.024 91.8C141.874 91.74 141.634 91.7 141.304 91.68V91.38C142.384 91.41 144.014 91.425 146.194 91.425C147.664 91.425 148.709 91.41 149.329 91.38C149.259 92.21 149.224 92.95 149.224 93.6C149.224 94.04 149.239 94.38 149.269 94.62H148.924C148.774 93.55 148.504 92.8 148.114 92.37C147.724 91.94 147.174 91.725 146.464 91.725H145.849C145.539 91.725 145.314 91.75 145.174 91.8C145.034 91.85 144.939 91.95 144.889 92.1C144.839 92.24 144.814 92.47 144.814 92.79V96.51H145.294C145.824 96.51 146.224 96.315 146.494 95.925C146.774 95.535 146.969 95.07 147.079 94.53H147.424C147.394 94.95 147.379 95.42 147.379 95.94V96.66C147.379 97.17 147.409 97.88 147.469 98.79H147.124C146.914 97.47 146.304 96.81 145.294 96.81H144.814V100.59C144.814 100.91 144.839 101.145 144.889 101.295C144.939 101.435 145.034 101.53 145.174 101.58C145.314 101.63 145.539 101.655 145.849 101.655H146.584C147.294 101.655 147.864 101.415 148.294 100.935C148.734 100.445 149.044 99.62 149.224 98.46H149.569C149.539 98.79 149.524 99.21 149.524 99.72ZM164.536 91.68C164.176 91.7 163.911 91.74 163.741 91.8C163.581 91.86 163.471 91.975 163.411 92.145C163.351 92.315 163.321 92.59 163.321 92.97V100.59C163.321 100.91 163.346 101.145 163.396 101.295C163.446 101.435 163.531 101.53 163.651 101.58C163.781 101.63 163.986 101.655 164.266 101.655H165.001C165.681 101.655 166.266 101.35 166.756 100.74C167.256 100.13 167.581 99.32 167.731 98.31H168.076C168.046 98.65 168.031 99.09 168.031 99.63C168.031 100.59 168.066 101.38 168.136 102C167.456 101.97 166.311 101.955 164.701 101.955C162.521 101.955 160.891 101.97 159.811 102V101.7C160.141 101.68 160.381 101.64 160.531 101.58C160.691 101.52 160.796 101.405 160.846 101.235C160.906 101.065 160.936 100.79 160.936 100.41V92.97C160.936 92.59 160.906 92.315 160.846 92.145C160.796 91.975 160.691 91.86 160.531 91.8C160.381 91.74 160.141 91.7 159.811 91.68V91.38C160.321 91.41 161.111 91.425 162.181 91.425C163.201 91.425 163.986 91.41 164.536 91.38V91.68ZM181.731 91.185C182.251 91.185 182.666 91.235 182.976 91.335C183.286 91.435 183.601 91.58 183.921 91.77C184.031 91.83 184.126 91.88 184.206 91.92C184.296 91.96 184.371 91.98 184.431 91.98C184.521 91.98 184.591 91.93 184.641 91.83C184.691 91.72 184.731 91.55 184.761 91.32H185.106C185.056 91.99 185.031 93.13 185.031 94.74H184.686C184.646 94.2 184.521 93.685 184.311 93.195C184.111 92.705 183.821 92.31 183.441 92.01C183.071 91.7 182.636 91.545 182.136 91.545C181.646 91.545 181.246 91.685 180.936 91.965C180.636 92.235 180.486 92.605 180.486 93.075C180.486 93.425 180.561 93.73 180.711 93.99C180.861 94.25 181.071 94.49 181.341 94.71C181.611 94.92 182.026 95.21 182.586 95.58L183.066 95.91C183.656 96.3 184.121 96.64 184.461 96.93C184.801 97.22 185.076 97.56 185.286 97.95C185.506 98.33 185.616 98.775 185.616 99.285C185.616 99.925 185.451 100.465 185.121 100.905C184.791 101.335 184.341 101.66 183.771 101.88C183.211 102.1 182.586 102.21 181.896 102.21C181.336 102.21 180.871 102.16 180.501 102.06C180.131 101.96 179.791 101.825 179.481 101.655C179.261 101.515 179.091 101.445 178.971 101.445C178.881 101.445 178.811 101.5 178.761 101.61C178.711 101.71 178.671 101.875 178.641 102.105H178.296C178.336 101.475 178.356 100.125 178.356 98.055H178.701C178.771 99.175 179.021 100.085 179.451 100.785C179.881 101.475 180.541 101.82 181.431 101.82C181.971 101.82 182.416 101.675 182.766 101.385C183.116 101.095 183.291 100.68 183.291 100.14C183.291 99.58 183.111 99.1 182.751 98.7C182.391 98.3 181.821 97.85 181.041 97.35C180.441 96.96 179.961 96.62 179.601 96.33C179.241 96.04 178.946 95.7 178.716 95.31C178.486 94.91 178.371 94.45 178.371 93.93C178.371 93.33 178.521 92.825 178.821 92.415C179.131 91.995 179.541 91.685 180.051 91.485C180.561 91.285 181.121 91.185 181.731 91.185Z" fill="#14274A"/>
<path d="M54.96 58.68V59.48C54.0533 59.5067 53.36 59.6133 52.88 59.8C52.4267 59.96 52.12 60.28 51.96 60.76C51.8 61.2133 51.72 61.9333 51.72 62.92V83.24C51.72 84.0667 51.7733 84.68 51.88 85.08C52.0133 85.48 52.2533 85.7467 52.6 85.88C52.9733 86.0133 53.52 86.08 54.24 86.08H56.2C57.1067 86.08 57.96 85.8667 58.76 85.44C59.56 85.0133 60.28 84.4133 60.92 83.64C61.56 82.84 62.0933 81.8933 62.52 80.8C62.9467 79.7067 63.2667 78.4933 63.48 77.16H64.4C64.32 78.0667 64.28 79.24 64.28 80.68C64.28 81.2933 64.2933 82.1867 64.32 83.36C64.3467 84.5333 64.4267 85.7467 64.56 87C63.2 86.9467 61.6667 86.92 59.96 86.92C58.2533 86.8933 56.7333 86.88 55.4 86.88C54.7333 86.88 53.88 86.88 52.84 86.88C51.8 86.88 50.68 86.8933 49.48 86.92C48.28 86.92 47.0667 86.9333 45.84 86.96C44.6133 86.96 43.4533 86.9733 42.36 87V86.2C43.2133 86.1467 43.8533 86.04 44.28 85.88C44.7067 85.72 44.9867 85.4 45.12 84.92C45.28 84.44 45.36 83.72 45.36 82.76V62.92C45.36 61.9333 45.28 61.2133 45.12 60.76C44.9867 60.28 44.6933 59.96 44.24 59.8C43.8133 59.6133 43.1867 59.5067 42.36 59.48V58.68C43.0267 58.7067 43.92 58.7333 45.04 58.76C46.1867 58.7867 47.4 58.8 48.68 58.8C49.8533 58.8 51 58.7867 52.12 58.76C53.2667 58.7333 54.2133 58.7067 54.96 58.68ZM98.0588 58.68V59.48C97.2054 59.5867 96.5521 59.8133 96.0988 60.16C95.6721 60.48 95.3921 61 95.2588 61.72C95.1254 62.44 95.0588 63.4533 95.0588 64.76V75.36C95.0588 77.0933 94.9388 78.68 94.6988 80.12C94.4588 81.56 94.0321 82.8 93.4188 83.84C92.7254 84.9867 91.7121 85.8933 90.3788 86.56C89.0454 87.2267 87.3521 87.56 85.2988 87.56C84.0721 87.56 82.8188 87.4133 81.5388 87.12C80.2588 86.8533 79.1121 86.3333 78.0988 85.56C77.2454 84.84 76.5921 84.0267 76.1388 83.12C75.6854 82.2133 75.3788 81.1467 75.2188 79.92C75.0588 78.6667 74.9788 77.1867 74.9788 75.48V62.92C74.9788 61.9333 74.8988 61.2133 74.7388 60.76C74.6054 60.28 74.3254 59.96 73.8988 59.8C73.4721 59.6133 72.8321 59.5067 71.9788 59.48V58.68C72.6454 58.7067 73.5388 58.7333 74.6588 58.76C75.8054 58.7867 76.9921 58.8 78.2188 58.8C79.4454 58.8 80.6188 58.7867 81.7388 58.76C82.8854 58.7333 83.8321 58.7067 84.5788 58.68V59.48C83.6721 59.5067 82.9788 59.6133 82.4988 59.8C82.0454 59.96 81.7388 60.28 81.5788 60.76C81.4188 61.2133 81.3388 61.9333 81.3388 62.92V78C81.3388 79.3333 81.4188 80.52 81.5788 81.56C81.7654 82.5733 82.0588 83.4267 82.4588 84.12C82.8854 84.7867 83.4588 85.2933 84.1788 85.64C84.8988 85.9867 85.7921 86.16 86.8588 86.16C88.7254 86.16 90.1788 85.72 91.2188 84.84C92.2854 83.96 93.0321 82.7467 93.4588 81.2C93.9121 79.6267 94.1388 77.8267 94.1388 75.8V65.24C94.1388 63.7733 94.0454 62.6533 93.8588 61.88C93.6721 61.08 93.2988 60.5067 92.7388 60.16C92.2054 59.8133 91.3788 59.5867 90.2588 59.48V58.68C90.7654 58.7067 91.4321 58.7333 92.2588 58.76C93.0854 58.7867 93.8588 58.8 94.5788 58.8C95.2188 58.8 95.8454 58.7867 96.4588 58.76C97.0988 58.7333 97.6321 58.7067 98.0588 58.68ZM116.757 58.64V59.48C115.557 59.48 114.784 59.6 114.437 59.84C114.117 60.0533 114.144 60.44 114.517 61L130.357 84.16C130.89 84.9067 131.317 85.4133 131.637 85.68C131.957 85.9467 132.384 86.1067 132.917 86.16V87C132.384 86.9733 131.61 86.9467 130.597 86.92C129.584 86.8667 128.53 86.84 127.437 86.84C126.237 86.84 125.01 86.8667 123.757 86.92C122.53 86.9467 121.61 86.9733 120.997 87V86.16C122.224 86.16 123.01 86.08 123.357 85.92C123.73 85.7333 123.73 85.36 123.357 84.8L107.477 61.48C106.97 60.7067 106.557 60.1867 106.237 59.92C105.917 59.6533 105.477 59.5067 104.917 59.48V58.64C105.477 58.6667 106.29 58.7067 107.357 58.76C108.45 58.7867 109.544 58.8 110.637 58.8C111.837 58.8 112.984 58.7867 114.077 58.76C115.197 58.7067 116.09 58.6667 116.757 58.64ZM117.117 72.76C117.117 72.76 117.144 72.8533 117.197 73.04C117.25 73.2 117.304 73.3733 117.357 73.56C117.41 73.72 117.437 73.8 117.437 73.8L113.437 79.28C112.37 80.72 111.77 81.9467 111.637 82.96C111.504 83.9467 111.73 84.72 112.317 85.28C112.93 85.8133 113.824 86.12 114.997 86.2V87C114.624 86.9733 114.144 86.96 113.557 86.96C112.997 86.9333 112.397 86.92 111.757 86.92C111.144 86.8933 110.557 86.88 109.997 86.88C109.464 86.88 109.024 86.88 108.677 86.88C107.93 86.88 107.237 86.8933 106.597 86.92C105.957 86.92 105.424 86.9467 104.997 87V86.2C105.93 85.88 106.877 85.32 107.837 84.52C108.797 83.6933 109.784 82.6267 110.797 81.32L117.117 72.76ZM131.117 58.68V59.48C130.237 59.72 129.357 60.2267 128.477 61C127.624 61.7733 126.824 62.6667 126.077 63.68L119.597 72.32C119.597 72.32 119.544 72.1467 119.437 71.8C119.357 71.4533 119.317 71.28 119.317 71.28L123.437 65.72C124.45 64.44 125.05 63.3467 125.237 62.44C125.45 61.5333 125.304 60.8267 124.797 60.32C124.29 59.8133 123.49 59.5333 122.397 59.48V58.68C122.904 58.7067 123.464 58.7333 124.077 58.76C124.69 58.76 125.29 58.7733 125.877 58.8C126.49 58.8 127.01 58.8 127.437 58.8C128.21 58.8 128.917 58.7867 129.557 58.76C130.197 58.7333 130.717 58.7067 131.117 58.68ZM165.293 58.68V59.48C164.44 59.5867 163.786 59.8133 163.333 60.16C162.906 60.48 162.626 61 162.493 61.72C162.36 62.44 162.293 63.4533 162.293 64.76V75.36C162.293 77.0933 162.173 78.68 161.933 80.12C161.693 81.56 161.266 82.8 160.653 83.84C159.96 84.9867 158.946 85.8933 157.613 86.56C156.28 87.2267 154.586 87.56 152.533 87.56C151.306 87.56 150.053 87.4133 148.773 87.12C147.493 86.8533 146.346 86.3333 145.333 85.56C144.48 84.84 143.826 84.0267 143.373 83.12C142.92 82.2133 142.613 81.1467 142.453 79.92C142.293 78.6667 142.213 77.1867 142.213 75.48V62.92C142.213 61.9333 142.133 61.2133 141.973 60.76C141.84 60.28 141.56 59.96 141.133 59.8C140.706 59.6133 140.066 59.5067 139.213 59.48V58.68C139.88 58.7067 140.773 58.7333 141.893 58.76C143.04 58.7867 144.226 58.8 145.453 58.8C146.68 58.8 147.853 58.7867 148.973 58.76C150.12 58.7333 151.066 58.7067 151.813 58.68V59.48C150.906 59.5067 150.213 59.6133 149.733 59.8C149.28 59.96 148.973 60.28 148.813 60.76C148.653 61.2133 148.573 61.9333 148.573 62.92V78C148.573 79.3333 148.653 80.52 148.813 81.56C149 82.5733 149.293 83.4267 149.693 84.12C150.12 84.7867 150.693 85.2933 151.413 85.64C152.133 85.9867 153.026 86.16 154.093 86.16C155.96 86.16 157.413 85.72 158.453 84.84C159.52 83.96 160.266 82.7467 160.693 81.2C161.146 79.6267 161.373 77.8267 161.373 75.8V65.24C161.373 63.7733 161.28 62.6533 161.093 61.88C160.906 61.08 160.533 60.5067 159.973 60.16C159.44 59.8133 158.613 59.5867 157.493 59.48V58.68C158 58.7067 158.666 58.7333 159.493 58.76C160.32 58.7867 161.093 58.8 161.813 58.8C162.453 58.8 163.08 58.7867 163.693 58.76C164.333 58.7333 164.866 58.7067 165.293 58.68ZM173.391 58.68C174.058 58.7067 174.951 58.7333 176.071 58.76C177.218 58.7867 178.351 58.8 179.471 58.8C180.751 58.8 181.991 58.7867 183.191 58.76C184.391 58.7333 185.245 58.72 185.751 58.72C188.231 58.72 190.285 59 191.911 59.56C193.565 60.0933 194.791 60.88 195.591 61.92C196.418 62.96 196.831 64.2133 196.831 65.68C196.831 66.5867 196.645 67.5067 196.271 68.44C195.898 69.3467 195.258 70.2 194.351 71C193.471 71.7733 192.258 72.4 190.711 72.88C189.165 73.3333 187.218 73.56 184.871 73.56H181.031V72.76H184.471C186.045 72.76 187.231 72.4667 188.031 71.88C188.858 71.2667 189.418 70.4667 189.711 69.48C190.031 68.4667 190.191 67.3467 190.191 66.12C190.191 64.0133 189.818 62.3867 189.071 61.24C188.325 60.0667 187.045 59.48 185.231 59.48C184.191 59.48 183.511 59.7067 183.191 60.16C182.898 60.6133 182.751 61.5333 182.751 62.92V82.76C182.751 83.72 182.818 84.44 182.951 84.92C183.111 85.4 183.405 85.72 183.831 85.88C184.258 86.04 184.898 86.1467 185.751 86.2V87C185.031 86.9467 184.125 86.92 183.031 86.92C181.938 86.8933 180.831 86.88 179.711 86.88C178.431 86.88 177.218 86.8933 176.071 86.92C174.951 86.92 174.058 86.9467 173.391 87V86.2C174.245 86.1467 174.885 86.04 175.311 85.88C175.738 85.72 176.018 85.4 176.151 84.92C176.311 84.44 176.391 83.72 176.391 82.76V62.92C176.391 61.9333 176.311 61.2133 176.151 60.76C176.018 60.28 175.725 59.96 175.271 59.8C174.845 59.6133 174.218 59.5067 173.391 59.48V58.68ZM180.951 72.88C182.098 72.9067 183.085 72.96 183.911 73.04C184.765 73.12 185.511 73.2 186.151 73.28C186.791 73.3333 187.365 73.3733 187.871 73.4C190.298 73.6133 192.085 74.1333 193.231 74.96C194.405 75.7867 195.165 77.0267 195.511 78.68L196.431 82.8C196.671 83.8667 196.925 84.6133 197.191 85.04C197.458 85.4667 197.845 85.68 198.351 85.68C198.698 85.6533 198.978 85.5733 199.191 85.44C199.431 85.28 199.685 85.0533 199.951 84.76L200.511 85.24C199.791 86.0667 199.018 86.6533 198.191 87C197.365 87.3733 196.365 87.56 195.191 87.56C193.751 87.56 192.565 87.2533 191.631 86.64C190.698 86.0267 190.085 84.8933 189.791 83.24L189.071 79.24C188.885 78.12 188.658 77.1467 188.391 76.32C188.125 75.4667 187.751 74.8 187.271 74.32C186.818 73.8133 186.178 73.56 185.351 73.56H181.031L180.951 72.88ZM228.922 58.64V59.44C228.336 59.68 227.736 60.16 227.122 60.88C226.509 61.5733 225.829 62.64 225.082 64.08L217.522 79.04H215.642L206.282 61.72C205.802 60.8133 205.362 60.2133 204.962 59.92C204.589 59.6267 204.256 59.48 203.962 59.48V58.64C204.682 58.72 205.416 58.7733 206.162 58.8C206.936 58.8267 207.776 58.84 208.682 58.84C209.856 58.84 211.122 58.8267 212.482 58.8C213.842 58.7467 215.082 58.6933 216.202 58.64V59.48C215.536 59.48 214.936 59.5333 214.402 59.64C213.869 59.7467 213.496 59.9467 213.282 60.24C213.069 60.5067 213.122 60.9467 213.442 61.56L219.762 73.72L218.522 75.32L222.642 67.04C223.629 65.12 224.149 63.6133 224.202 62.52C224.282 61.4267 224.016 60.6533 223.402 60.2C222.816 59.72 221.976 59.4667 220.882 59.44V58.64C221.789 58.6667 222.642 58.6933 223.442 58.72C224.242 58.7467 225.056 58.76 225.882 58.76C226.469 58.76 227.016 58.7467 227.522 58.72C228.056 58.6933 228.522 58.6667 228.922 58.64ZM220.362 72.72V82.76C220.362 83.72 220.429 84.44 220.562 84.92C220.722 85.4 221.016 85.72 221.442 85.88C221.869 86.04 222.509 86.1467 223.362 86.2V87C222.642 86.9467 221.709 86.92 220.562 86.92C219.442 86.8933 218.322 86.88 217.202 86.88C215.949 86.88 214.762 86.8933 213.642 86.92C212.522 86.92 211.642 86.9467 211.002 87V86.2C211.856 86.1467 212.496 86.04 212.922 85.88C213.349 85.72 213.629 85.4 213.762 84.92C213.922 84.44 214.002 83.72 214.002 82.76V74.56L217.482 77.04L220.362 72.72Z" fill="#14274A"/>
</svg>
